<mxfile host="app.diagrams.net" modified="2024-02-04T07:03:40.172Z" agent="Mozilla/5.0 (Windows NT 10.0; Win64; x64) AppleWebKit/537.36 (KHTML, like Gecko) Chrome/121.0.0.0 Safari/537.36" version="23.0.1" etag="m6FBEGge9r24MPSYCbxO" type="github">
  <diagram name="第 1 页" id="gSAdfdvXFhDBdCZ-LrHj">
    <mxGraphModel>
      <root>
        <mxCell id="0" />
        <mxCell id="1" parent="0" />
      </root>
    </mxGraphModel>
  </diagram>
</mxfile>
